<svg width="10" height="10" viewBox="0 0 10 10" fill="none" xmlns="http://www.w3.org/2000/svg">
<path d="M9.10714 5.89286H6.07143C5.97281 5.89286 5.89286 5.97281 5.89286 6.07143V9.10714C5.89286 9.60022 5.49308 10 5 10C4.50692 10 4.10714 9.60022 4.10714 9.10714V6.07143C4.10714 5.97281 4.02719 5.89286 3.92857 5.89286H0.892857C0.39978 5.89286 0 5.49308 0 5C0 4.50692 0.39978 4.10714 0.892857 4.10714H3.92857C4.02719 4.10714 4.10714 4.02719 4.10714 3.92857V0.892857C4.10714 0.39978 4.50692 0 5 0C5.49308 0 5.89286 0.39978 5.89286 0.892857V3.92857C5.89286 4.02719 5.97281 4.10714 6.07143 4.10714H9.10714C9.60022 4.10714 10 4.50692 10 5C10 5.49308 9.60022 5.89286 9.10714 5.89286Z" fill="#1ABC9C"/>
</svg>
