<svg xmlns="http://www.w3.org/2000/svg" xmlns:xlink="http://www.w3.org/1999/xlink" width="20" height="20" viewBox="0 0 20 20"><defs><clipPath id="a"><rect width="20" height="20" transform="translate(-21873 -4981)" fill="none" stroke="#707070" stroke-width="1"/></clipPath></defs><g transform="translate(21873 4981)" clip-path="url(#a)"><g transform="translate(-21872.084 -4980)"><circle cx="3.035" cy="3.035" r="3.035" transform="translate(5.896 0)" fill="#7f869b"/><path d="M11.611,6.346H9.436c.193.186-.045.814-.2,1.162a2.493,2.493,0,0,0-.935.013c-.155-.348-.4-.987-.208-1.175H5.976c-4.034.073-3.89,3.035-3.89,3.035l0,6.915h0c0,.016,0,.033,0,.049a1.186,1.186,0,1,0,2.372,0c0-.016,0-.033,0-.049h0V9.9H5.2l0,7.36,7.107.012,0-7.4h.771V16.3h0V16.3a1.185,1.185,0,1,0,2.371,0V9.381C15.184,6.3,11.611,6.346,11.611,6.346ZM8.787,14.278,8.008,13.3,8.4,8.162a2.232,2.232,0,0,1,.725-.01l.01.107.189,2.487L9.52,13.3Z" fill="#7f869b"/></g><g transform="translate(-21872.084 -4980)"><circle cx="3.035" cy="3.035" r="3.035" transform="translate(5.896 0)" fill="#7f869b"/><path d="M11.611,6.346H9.436c.193.186-.045.814-.2,1.162a2.493,2.493,0,0,0-.935.013c-.155-.348-.4-.987-.208-1.175H5.976c-4.034.073-3.89,3.035-3.89,3.035l0,6.915h0c0,.016,0,.033,0,.049a1.186,1.186,0,1,0,2.372,0c0-.016,0-.033,0-.049h0V9.9H5.2l0,7.36,7.107.012,0-7.4h.771V16.3h0V16.3a1.185,1.185,0,1,0,2.371,0V9.381C15.184,6.3,11.611,6.346,11.611,6.346ZM8.787,14.278,8.008,13.3,8.4,8.162a2.232,2.232,0,0,1,.725-.01l.01.107.189,2.487L9.52,13.3Z" fill="#7f869b"/></g></g></svg>