<svg id="brake" xmlns="http://www.w3.org/2000/svg" width="29.628" height="29.628" viewBox="0 0 29.628 29.628">
  <path id="Path_13396" data-name="Path 13396" d="M178.311,180.672a3.361,3.361,0,1,0-3.361-3.361A3.365,3.365,0,0,0,178.311,180.672Zm-1.029-4.39h2.058v2.058h-2.058Z" transform="translate(-162.95 -162.019)" fill="#7f869b"/>
  <path id="Path_13397" data-name="Path 13397" d="M31.481,16.35v4.774a9.433,9.433,0,0,0-10.357,9.328v1.029H16.35A14.267,14.267,0,1,0,31.481,16.35ZM28.12,40.535V38.477h2.058v2.058Zm9.808-4.664v2.058H35.871V35.871ZM36.557,24.279H34.5V22.221h2.058Zm2.126,6.585V28.806h2.058v2.058ZM30.589,25.1a5.419,5.419,0,1,1-5.419,5.419A5.425,5.425,0,0,1,30.589,25.1ZM21.81,33.95h2.058v2.058H21.81Z" transform="translate(-15.229 -15.229)" fill="#7f869b"/>
  <path id="Path_13398" data-name="Path 13398" d="M3.884,14.195A11.41,11.41,0,0,1,14.195,3.884V0A15.333,15.333,0,0,0,0,14.195Z" fill="#7f869b"/>
</svg>
