<svg xmlns="http://www.w3.org/2000/svg" xmlns:xlink="http://www.w3.org/1999/xlink" width="20" height="20" viewBox="0 0 20 20"><defs><clipPath id="a"><rect width="20" height="20" transform="translate(-21873 -5346)" fill="none" stroke="#707070" stroke-width="1"/></clipPath></defs><g transform="translate(21873 5346)" clip-path="url(#a)"><g transform="translate(-21899 -5346)"><path d="M11.922-7.875A.329.329,0,0,0,12.25-8.2V-9.3a.329.329,0,0,0-.328-.328h-.547v-1.312a1.313,1.313,0,0,0-1.312-1.312H1.313A1.313,1.313,0,0,0,0-10.937V.438A1.313,1.313,0,0,0,1.313,1.75h8.75A1.313,1.313,0,0,0,11.375.438V-.875h.547A.329.329,0,0,0,12.25-1.2V-2.3a.329.329,0,0,0-.328-.328h-.547v-1.75h.547A.329.329,0,0,0,12.25-4.7V-5.8a.329.329,0,0,0-.328-.328h-.547v-1.75ZM5.688-8.75A1.752,1.752,0,0,1,7.438-7a1.752,1.752,0,0,1-1.75,1.75A1.752,1.752,0,0,1,3.938-7,1.752,1.752,0,0,1,5.688-8.75ZM8.75-2.275a.573.573,0,0,1-.613.525h-4.9a.573.573,0,0,1-.613-.525V-2.8A1.722,1.722,0,0,1,4.463-4.375H4.6a2.832,2.832,0,0,0,1.088.219,2.822,2.822,0,0,0,1.088-.219h.137A1.722,1.722,0,0,1,8.75-2.8Z" transform="translate(30 15)" fill="#7f869b"/></g></g></svg>