<svg width="14" height="14" viewBox="0 0 14 14" fill="none" xmlns="http://www.w3.org/2000/svg">
<g clip-path="url(#clip0)">
<path d="M0.409547 10.6917H11.1288C11.2249 10.6917 11.3178 10.6581 11.3915 10.5967C11.4945 10.5105 13.8431 8.49015 13.9863 4.12891H2.47404C2.33138 8.08774 0.168446 9.94851 0.145969 9.96708C0.0141932 10.0784 -0.0342895 10.2603 0.0249945 10.4221C0.0838682 10.5835 0.237301 10.6917 0.409547 10.6917Z" fill="#21497D"/>
<path d="M13.5899 1.66776H11.539V1.25759C11.539 1.02789 11.3585 0.847412 11.1288 0.847412C10.8991 0.847412 10.7186 1.02789 10.7186 1.25759V1.66776H8.64041V1.25759C8.64041 1.02789 8.45994 0.847412 8.23024 0.847412C8.00054 0.847412 7.82006 1.02789 7.82006 1.25759V1.66776H5.76919V1.25759C5.76919 1.02789 5.58871 0.847412 5.35902 0.847412C5.12932 0.847412 4.94884 1.02789 4.94884 1.25759V1.66776H2.89797C2.66827 1.66776 2.48779 1.84824 2.48779 2.07794V3.30846H14V2.07794C14 1.84824 13.8196 1.66776 13.5899 1.66776Z" fill="#21497D"/>
<path d="M11.9183 11.2255C11.6956 11.411 11.416 11.512 11.1288 11.512H2.48779V12.7425C2.48779 12.9692 2.67125 13.1527 2.89797 13.1527H13.5899C13.8166 13.1527 14 12.9692 14 12.7425V8.14453C13.2092 10.0847 12.1057 11.0687 11.9183 11.2255Z" fill="#21497D"/>
</g>
<defs>
<clipPath id="clip0">
<rect width="14" height="14" fill="white"/>
</clipPath>
</defs>
</svg>
