<svg width="14" height="14" viewBox="0 0 14 14" fill="none" xmlns="http://www.w3.org/2000/svg">
<path d="M6.88103 0.430664C4.36546 0.430664 2.31885 2.47728 2.31885 4.99285C2.31885 8.15466 6.88552 13.5557 6.88552 13.5557C6.88552 13.5557 11.4432 7.99917 11.4432 4.99285C11.4432 2.47728 9.39669 0.430664 6.88103 0.430664ZM8.25754 6.32866C7.87799 6.70814 7.37955 6.89791 6.88103 6.89791C6.3826 6.89791 5.884 6.70814 5.50461 6.32866C4.74558 5.56971 4.74558 4.33476 5.50461 3.57573C5.87215 3.20803 6.36105 3.00552 6.88103 3.00552C7.40102 3.00552 7.88984 3.20811 8.25754 3.57573C9.01657 4.33476 9.01657 5.56971 8.25754 6.32866Z" fill="#21497D"/>
</svg>
