<svg width="22" height="15" viewBox="0 0 22 15" fill="none" xmlns="http://www.w3.org/2000/svg">
<path d="M20.9999 4.35629C21.0032 4.04813 20.9023 3.74768 20.7131 3.50242L19.1289 1.50256C19.0001 1.34438 18.8367 1.21699 18.6509 1.12996C18.4652 1.04293 18.2618 0.998516 18.0562 1.00004C17.8087 0.998688 17.5658 1.06593 17.3552 1.1941L15.8103 2.14194C15.5929 2.2594 15.3479 2.31823 15.1 2.31251C14.9131 2.3179 14.7273 2.28305 14.5554 2.21038L13.0426 1.48724C12.795 1.3752 12.525 1.31935 12.2526 1.32382C11.8586 1.31688 11.4715 1.42683 11.1416 1.63943L10.9645 1.76199L10.3629 1.46681C10.0541 1.32665 9.71716 1.25684 9.37721 1.26254C9.06761 1.25786 8.7601 1.31339 8.47225 1.42595L7.43682 1.86004C7.21316 1.94259 6.97562 1.98245 6.73687 1.9775C6.49846 1.98234 6.26129 1.94249 6.03796 1.86004L5.00253 1.42595C4.8162 1.34956 4.61618 1.311 4.4144 1.31258C4.18473 1.31308 3.9573 1.35712 3.74448 1.4423C3.52885 1.52618 3.33548 1.65753 3.17914 1.82634L1.31122 3.90076C1.20253 4.02045 1.11924 4.16041 1.06627 4.31238C1.01331 4.46434 0.991735 4.62522 1.00283 4.78555C1.01393 4.94587 1.05748 5.10237 1.13089 5.24582C1.20431 5.38927 1.30611 5.51676 1.4303 5.62076L3.18224 7.09461L2.3539 7.94951C2.12771 8.18468 2.00519 8.49867 2.01315 8.82275C2.0211 9.14683 2.15889 9.4546 2.39635 9.6787L2.56513 9.83702C2.71992 9.97956 2.90924 10.0805 3.11494 10.1302C2.98236 10.3651 2.93307 10.6369 2.9749 10.9026C3.01673 11.1683 3.14727 11.4127 3.34584 11.5969L3.51462 11.7552C3.69133 11.9194 3.91259 12.0296 4.15154 12.0722C4.39049 12.1148 4.63684 12.0881 4.86067 11.9952C4.91563 12.2209 5.03534 12.4262 5.20547 12.5866L5.37425 12.7449C5.57988 12.9369 5.84541 13.0544 6.12749 13.0783C6.40957 13.1023 6.69155 13.0312 6.92739 12.8766C6.98791 13.0762 7.09952 13.257 7.25148 13.4016L7.42025 13.5599C7.66013 13.7829 7.97939 13.9036 8.30887 13.896C8.63835 13.8883 8.9515 13.7529 9.18048 13.5191L9.9146 12.7623L10.9128 13.6733C11.1553 13.8938 11.4763 14.0109 11.8059 13.9992C12.1355 13.9875 12.4471 13.848 12.673 13.611L12.8324 13.4425C12.9644 13.3006 13.0603 13.1297 13.112 12.9441L13.4982 13.2964C13.7413 13.5161 14.0623 13.6325 14.3917 13.6205C14.7212 13.6084 15.0325 13.4689 15.2585 13.2321L15.4169 13.0636C15.5922 12.8771 15.7035 12.6409 15.7347 12.3884C15.9511 12.4473 16.1798 12.4461 16.3956 12.385C16.6113 12.3239 16.8058 12.2053 16.9576 12.0422L17.116 11.8737C17.3299 11.6478 17.4487 11.3503 17.4484 11.0412C17.4473 10.9487 17.4359 10.8565 17.4142 10.7665C17.6998 10.7319 17.9642 10.6 18.1618 10.3937L18.3212 10.2251C18.5445 9.98706 18.663 9.67137 18.6508 9.34725C18.6386 9.02313 18.4966 8.71701 18.256 8.49595L17.9578 8.22426L20.6499 5.29188C20.8794 5.03315 21.004 4.70002 20.9999 4.35629ZM3.42246 9.50813C3.27737 9.5087 3.13761 9.45421 3.03211 9.35595L2.86437 9.20172C2.81065 9.1514 2.76752 9.09112 2.73745 9.02433C2.70738 8.95755 2.69096 8.88557 2.68913 8.81252C2.68731 8.73947 2.70011 8.66677 2.7268 8.5986C2.75349 8.53043 2.79356 8.46813 2.84469 8.41526L4.5459 6.65848C4.65033 6.55232 4.79288 6.4909 4.9428 6.48746C5.09272 6.48402 5.238 6.53884 5.34732 6.6401L5.51506 6.79841C5.60149 6.91927 5.66112 7.05674 5.69005 7.20186C5.68884 7.31468 5.65272 7.42444 5.58651 7.51645L3.75173 9.406C3.65521 9.47258 3.54025 9.50824 3.42246 9.50813ZM4.78198 11.2557C4.67759 11.3616 4.53526 11.4228 4.3856 11.4262C4.23593 11.4297 4.09087 11.375 3.98159 11.2741L3.81282 11.1158C3.75894 11.0651 3.71575 11.0043 3.68574 10.9371C3.65573 10.8698 3.63948 10.7974 3.63795 10.7239C3.63641 10.6504 3.6496 10.5774 3.67677 10.509C3.70393 10.4406 3.74454 10.3781 3.79625 10.3252C3.79625 10.3252 6.06488 7.99547 6.08455 7.97606C6.19018 7.87713 6.33028 7.82198 6.47594 7.82198C6.6216 7.82198 6.7617 7.87713 6.86733 7.97606L7.03611 8.13438C7.14421 8.23628 7.20689 8.37635 7.21039 8.52381C7.21388 8.67127 7.1579 8.81406 7.05475 8.92084L4.78198 11.2557ZM6.64575 12.2465C6.5415 12.3525 6.39913 12.4139 6.24938 12.4174C6.09963 12.4208 5.95451 12.366 5.84537 12.2648L5.67556 12.1065C5.57328 12.0108 5.51136 11.8806 5.50215 11.7418C5.49294 11.603 5.53711 11.4659 5.62586 11.3579L7.20281 9.72978C7.3084 9.6352 7.44628 9.5834 7.58889 9.58473C7.73151 9.58605 7.86837 9.6404 7.97214 9.73692L8.14195 9.89523C8.25005 9.99714 8.31273 10.1372 8.31623 10.2847C8.31972 10.4321 8.26374 10.5749 8.16058 10.6817L6.64575 12.2465ZM9.6485 12.0749L8.68969 13.0615C8.58543 13.1676 8.44306 13.229 8.29331 13.2324C8.14356 13.2359 7.99845 13.1811 7.8893 13.0799L7.72053 12.9216C7.61242 12.8197 7.54974 12.6796 7.54625 12.5322C7.54275 12.3847 7.59873 12.2419 7.70189 12.1351L8.6607 11.1485C8.76513 11.0423 8.90767 10.9809 9.05759 10.9774C9.20751 10.974 9.3528 11.0288 9.46212 11.1301L9.63193 11.2884C9.74003 11.3903 9.80271 11.5304 9.80621 11.6778C9.8097 11.8253 9.75373 11.9681 9.65057 12.0749H9.6485ZM17.9775 9.3968C17.9778 9.53718 17.9237 9.67236 17.8263 9.77471L17.6679 9.94324C17.5649 10.0505 17.4233 10.1136 17.2736 10.119C17.1239 10.1243 16.9781 10.0715 16.8675 9.97184L14.1909 7.52972L13.7281 8.01896L16.5931 10.6378C16.7026 10.7383 16.7672 10.8776 16.7727 11.0251C16.7781 11.1726 16.7239 11.3161 16.6221 11.4242L16.4637 11.5928C16.3608 11.7003 16.2192 11.7635 16.0694 11.7689C15.9197 11.7742 15.7738 11.7213 15.6633 11.6214L12.9857 9.17925L12.5228 9.6685L14.9043 11.8359C15.0108 11.9368 15.0728 12.0749 15.077 12.2204C15.0813 12.366 15.0275 12.5074 14.9271 12.6141L14.7687 12.7827C14.6658 12.8904 14.5241 12.9539 14.3741 12.9594C14.2242 12.965 14.0781 12.9121 13.9673 12.8123L11.5961 10.6521L11.1343 11.1423L11.1437 11.1505L12.3313 12.2322C12.4323 12.3333 12.4898 12.4691 12.4917 12.6111C12.4936 12.7531 12.4399 12.8903 12.3416 12.9941L12.1832 13.1626C12.0805 13.2701 11.9391 13.3333 11.7895 13.3387C11.6399 13.344 11.4942 13.2911 11.3839 13.1912L10.3484 12.2465C10.4726 12.0133 10.5159 11.7463 10.4715 11.4866C10.4272 11.2268 10.2978 10.9886 10.1031 10.8084L9.93324 10.65C9.70141 10.4328 9.3936 10.3121 9.07383 10.313C9.05002 10.313 9.0262 10.3181 9.00239 10.3201C9.00239 10.315 9.00239 10.3089 9.00239 10.3028C8.93795 9.98402 8.80676 9.68207 8.61721 9.41621L8.44843 9.2579C8.27452 9.0952 8.0566 8.98559 7.82096 8.94229C7.90293 8.72072 7.91719 8.4803 7.86197 8.25081C7.80676 8.02133 7.6845 7.81287 7.51034 7.65126L7.34156 7.49295C7.10938 7.27624 6.8018 7.1556 6.48216 7.15589C6.44592 7.15589 6.41071 7.16305 6.37861 7.16611C6.36994 6.84501 6.23298 6.5403 5.99757 6.31836L5.8288 6.16005C5.58892 5.93712 5.26966 5.8164 4.94018 5.82405C4.6107 5.83169 4.29755 5.96709 4.06857 6.20091L3.66682 6.60946L1.87346 5.1162C1.818 5.06965 1.77254 5.01261 1.73977 4.94845C1.707 4.88429 1.68759 4.81431 1.68266 4.74263C1.67774 4.67096 1.68742 4.59903 1.71112 4.5311C1.73481 4.46317 1.77206 4.40061 1.82065 4.3471L3.69892 2.27268C3.78597 2.18288 3.89204 2.11313 4.00955 2.06841C4.14123 2.01616 4.28179 1.98912 4.42372 1.98874C4.53364 1.98728 4.64276 2.00741 4.74471 2.04797L5.78013 2.48206C6.08808 2.60089 6.4166 2.65918 6.74722 2.65365C7.07784 2.65918 7.40637 2.60089 7.71432 2.48206L8.74974 2.04797C8.95282 1.97109 9.16905 1.93364 9.38653 1.93767C9.62048 1.93178 9.85293 1.97603 10.0678 2.06739L10.3433 2.20322L9.28403 2.92534C9.15043 3.01719 9.03694 3.13462 8.95032 3.27063C8.8637 3.40665 8.80571 3.55848 8.77982 3.71707C8.75392 3.87565 8.76065 4.03776 8.7996 4.19373C8.83855 4.3497 8.90893 4.49634 9.00653 4.62492L9.14528 4.80877C9.27281 4.97288 9.43716 5.1056 9.62544 5.19651C9.81371 5.28742 10.0208 5.33405 10.2304 5.33274C10.4694 5.33367 10.7042 5.27048 10.9096 5.14991L11.5382 4.77711C11.6967 4.69137 11.8751 4.64806 12.0559 4.65147C12.2736 4.64629 12.4878 4.70571 12.6709 4.82205L14.4094 6.0477C14.8836 6.3913 15.3398 6.75846 15.7762 7.14773L17.789 8.98621C17.8471 9.03815 17.8935 9.10152 17.9253 9.17224C17.957 9.24296 17.9734 9.31946 17.9733 9.3968H17.9775ZM20.1457 4.8486L17.4639 7.77179L16.2462 6.66155C15.7893 6.25347 15.3114 5.86891 14.8143 5.50943L13.0758 4.28378C12.7769 4.08512 12.4234 3.98173 12.0631 3.98758C11.757 3.98302 11.4552 4.05956 11.1892 4.20922L10.5607 4.58202C10.4613 4.63971 10.3478 4.66971 10.2325 4.66884C10.1288 4.66993 10.0263 4.64757 9.9328 4.60348C9.83929 4.55939 9.75726 4.49475 9.69302 4.41451L9.55427 4.23066C9.51052 4.17353 9.47893 4.10826 9.46141 4.03877C9.44388 3.96929 9.44078 3.89702 9.45229 3.82633C9.4638 3.75563 9.48969 3.68796 9.52839 3.62738C9.56708 3.56681 9.6178 3.51457 9.67749 3.47382L11.5361 2.18586C11.7516 2.05417 12.0012 1.9871 12.2547 1.99282C12.4239 1.98912 12.5918 2.02225 12.7465 2.08985L14.2593 2.81299C14.5234 2.93147 14.811 2.99043 15.1011 2.9856C15.4764 2.9921 15.8465 2.89784 16.1717 2.71289L17.7176 1.76403C17.8202 1.70258 17.9382 1.67073 18.0583 1.67211C18.1605 1.67091 18.2618 1.69229 18.3546 1.73471C18.4474 1.77712 18.5294 1.83949 18.5946 1.91724L20.1788 3.9171C20.2746 4.04535 20.3252 4.20107 20.3227 4.36038C20.3243 4.53923 20.2603 4.71262 20.1426 4.8486H20.1457Z" fill="#BBC5D5" stroke="#BBC5D5" stroke-width="0.4"/>
</svg>
