<svg xmlns="http://www.w3.org/2000/svg" width="11.68" height="14" viewBox="0 0 11.68 14">
  <g id="user_2_" data-name="user (2)" transform="translate(0 0)">
    <path id="Path_5643" data-name="Path 5643" d="M90.4,6.744a3.263,3.263,0,0,0,2.384-.988,3.263,3.263,0,0,0,.988-2.384A3.263,3.263,0,0,0,92.788.988a3.371,3.371,0,0,0-4.768,0,3.263,3.263,0,0,0-.988,2.384,3.263,3.263,0,0,0,.988,2.384,3.263,3.263,0,0,0,2.384.988Zm0,0" transform="translate(-84.652)" fill="#7f869b"/>
    <path id="Path_5644" data-name="Path 5644" d="M11.652,251.319a8.328,8.328,0,0,0-.113-.885,6.969,6.969,0,0,0-.218-.889,4.392,4.392,0,0,0-.366-.829A3.131,3.131,0,0,0,10.4,248a2.431,2.431,0,0,0-.792-.5,2.737,2.737,0,0,0-1.011-.183,1.026,1.026,0,0,0-.548.232c-.164.107-.356.231-.571.368a3.271,3.271,0,0,1-.739.325,2.869,2.869,0,0,1-1.807,0,3.264,3.264,0,0,1-.738-.325c-.212-.136-.4-.26-.571-.368a1.025,1.025,0,0,0-.548-.232,2.734,2.734,0,0,0-1.011.183,2.429,2.429,0,0,0-.792.5,3.13,3.13,0,0,0-.551.718,4.4,4.4,0,0,0-.366.83,6.986,6.986,0,0,0-.217.889,8.3,8.3,0,0,0-.113.885c-.019.268-.028.546-.028.827A2.325,2.325,0,0,0,.69,253.9a2.486,2.486,0,0,0,1.779.649H9.21a2.485,2.485,0,0,0,1.779-.649,2.324,2.324,0,0,0,.691-1.759c0-.282-.01-.56-.028-.827Zm0,0" transform="translate(0 -240.554)" fill="#7f869b"/>
  </g>
</svg>
