<svg xmlns="http://www.w3.org/2000/svg" width="17.665" height="14" viewBox="0 0 17.665 14">
  <g id="megaphone" transform="translate(0 -46.498)">
    <g id="Group_8527" data-name="Group 8527" transform="translate(0 46.498)">
      <g id="Group_8526" data-name="Group 8526" transform="translate(0 0)">
        <path id="Path_13302" data-name="Path 13302" d="M0,158.239a1.585,1.585,0,0,0,1.029,1.5V156.88c0-.041.021-.1.021-.144A1.606,1.606,0,0,0,0,158.239Z" transform="translate(0 -152.392)" fill="#7F869B"/>
        <path id="Path_13303" data-name="Path 13303" d="M76.887,284.735h-2.7L75.2,288.4a1.276,1.276,0,0,0,1.235.947,1.3,1.3,0,0,0,1.05-.515,1.194,1.194,0,0,0,.206-1.112Z" transform="translate(-71.266 -275.347)" fill="#7F869B"/>
        <path id="Path_13304" data-name="Path 13304" d="M26.648,155.711h.021v-.021C26.669,155.711,26.669,155.711,26.648,155.711Z" transform="translate(-25.598 -151.387)" fill="#7F869B"/>
        <path id="Path_13305" data-name="Path 13305" d="M397.229,148.9h-.165V152.6h.165a1.853,1.853,0,0,0,0-3.706Z" transform="translate(-381.417 -144.863)" fill="#7F869B"/>
        <path id="Path_13306" data-name="Path 13306" d="M41.8,129.276V132.2a1.4,1.4,0,0,0,1.4,1.359h3.747V128H43.2A1.339,1.339,0,0,0,41.8,129.276Z" transform="translate(-40.152 -124.788)" fill="#7F869B"/>
        <path id="Path_13307" data-name="Path 13307" d="M188.084,55.351,195.7,58.4V46.5l-7.618,3.047Z" transform="translate(-180.672 -46.498)" fill="#7F869B"/>
      </g>
    </g>
  </g>
</svg>
