<svg xmlns="http://www.w3.org/2000/svg" xmlns:xlink="http://www.w3.org/1999/xlink" width="20" height="20" viewBox="0 0 20 20"><defs><clipPath id="a"><rect width="20" height="20" transform="translate(-21872 -5451)" fill="#7f869b" stroke="#707070" stroke-width="1"/></clipPath></defs><g transform="translate(21872 5451)" clip-path="url(#a)"><g transform="translate(-21900 -5451)"><path d="M2.311-9.064a7.585,7.585,0,0,1,5.564-2.311,7.585,7.585,0,0,1,5.564,2.311A7.585,7.585,0,0,1,15.75-3.5,7.746,7.746,0,0,1,14.684.465a.806.806,0,0,1-.738.41H1.8a.806.806,0,0,1-.738-.41A7.746,7.746,0,0,1,0-3.5,7.585,7.585,0,0,1,2.311-9.064ZM2.01-2.01a.841.841,0,0,0,.615.26.841.841,0,0,0,.615-.26.841.841,0,0,0,.26-.615.841.841,0,0,0-.26-.615.841.841,0,0,0-.615-.26.841.841,0,0,0-.615.26.841.841,0,0,0-.26.615A.841.841,0,0,0,2.01-2.01ZM3.322-6.385a.841.841,0,0,0,.615.26.841.841,0,0,0,.615-.26A.841.841,0,0,0,4.813-7a.841.841,0,0,0-.26-.615.841.841,0,0,0-.615-.26.841.841,0,0,0-.615.26A.841.841,0,0,0,3.063-7,.841.841,0,0,0,3.322-6.385ZM9.379-.875a1.673,1.673,0,0,0,.246-.875,1.7,1.7,0,0,0-.3-.984,1.682,1.682,0,0,0-.793-.629V-8.75a.633.633,0,0,0-.191-.465.633.633,0,0,0-.465-.191.633.633,0,0,0-.465.191.633.633,0,0,0-.191.465v5.387a1.881,1.881,0,0,0-.574.369,1.614,1.614,0,0,0-.383.561,1.76,1.76,0,0,0-.137.684,1.673,1.673,0,0,0,.246.875ZM11.2-7.615a.841.841,0,0,0-.26.615.841.841,0,0,0,.26.615.841.841,0,0,0,.615.26.841.841,0,0,0,.615-.26A.841.841,0,0,0,12.688-7a.841.841,0,0,0-.26-.615.841.841,0,0,0-.615-.26A.841.841,0,0,0,11.2-7.615ZM12.51-2.01a.841.841,0,0,0,.615.26.841.841,0,0,0,.615-.26A.841.841,0,0,0,14-2.625a.841.841,0,0,0-.26-.615.841.841,0,0,0-.615-.26.841.841,0,0,0-.615.26.841.841,0,0,0-.26.615A.841.841,0,0,0,12.51-2.01Z" transform="translate(30 15)" fill="#7f869b"/></g></g></svg>