<svg xmlns="http://www.w3.org/2000/svg" width="14.695" height="14.694" viewBox="0 0 14.695 14.694">
  <g id="delivery-box_1_" data-name="delivery-box (1)" transform="translate(0 0)">
    <path id="Path_13308" data-name="Path 13308" d="M10.219,1.181,3.551,4.6.9,3.291,7.451.057a.537.537,0,0,1,.478,0Z" transform="translate(-0.349)" fill="#7f869b"/>
    <path id="Path_13309" data-name="Path 13309" d="M16.95,4.431,10.164,7.792,7.623,6.54l-.367-.187L13.932,2.94l.367.186Z" transform="translate(-2.813 -1.14)" fill="#7f869b"/>
    <path id="Path_13310" data-name="Path 13310" d="M6.807,10.318,6.8,17.392.3,14a.568.568,0,0,1-.3-.5V6.957L2.754,8.314V10.7a.551.551,0,1,0,1.1,0V8.865l.367.179Z" transform="translate(0 -2.697)" fill="#7f869b"/>
    <path id="Path_13311" data-name="Path 13311" d="M19.691,6.969l-6.778,3.347-.007,7.074L19.7,13.842Z" transform="translate(-5.004 -2.702)" fill="#7f869b"/>
  </g>
</svg>
