<svg width="16" height="16" viewBox="0 0 16 16" fill="none" xmlns="http://www.w3.org/2000/svg">
<g clip-path="url(#clip0)">
<path d="M7.99947 10.6668C7.86281 10.6668 7.73214 10.6108 7.63814 10.5122L4.13814 6.8455C3.83481 6.52816 4.06014 6.00016 4.49947 6.00016H6.33281V2.16683C6.33281 1.7075 6.70681 1.3335 7.16614 1.3335H8.83281C9.29214 1.3335 9.66614 1.7075 9.66614 2.16683V6.00016H11.4995C11.9388 6.00016 12.1641 6.52816 11.8608 6.8455L8.36081 10.5122C8.26681 10.6108 8.13614 10.6668 7.99947 10.6668Z" fill="#1BB394"/>
<path d="M14.8333 14.6667H1.16667C0.523333 14.6667 0 14.1433 0 13.5V13.1667C0 12.5233 0.523333 12 1.16667 12H14.8333C15.4767 12 16 12.5233 16 13.1667V13.5C16 14.1433 15.4767 14.6667 14.8333 14.6667Z" fill="#1BB394"/>
</g>
<defs>
<clipPath id="clip0">
<rect width="16" height="16" fill="white"/>
</clipPath>
</defs>
</svg>
