<svg xmlns="http://www.w3.org/2000/svg" xmlns:xlink="http://www.w3.org/1999/xlink" width="20" height="20" viewBox="0 0 20 20"><defs><clipPath id="a"><rect width="20" height="20" transform="translate(-21873 -4932)" fill="none" stroke="#707070" stroke-width="1"/></clipPath></defs><g transform="translate(21873 4932)" clip-path="url(#a)"><g transform="translate(-21872 -4930)"><path d="M6.42,3.684a.67.67,0,0,1-.67-.67V.67a.67.67,0,1,1,1.34,0V3.014A.67.67,0,0,1,6.42,3.684Z" transform="translate(-1.238)" fill="#7f869b"/><path d="M11.17,3.684a.67.67,0,0,1-.67-.67V.67a.67.67,0,0,1,1.34,0V3.014A.67.67,0,0,1,11.17,3.684Z" transform="translate(-2.807)" fill="#7f869b"/><path d="M15.92,3.684a.67.67,0,0,1-.67-.67V.67a.67.67,0,0,1,1.34,0V3.014A.67.67,0,0,1,15.92,3.684Z" transform="translate(-4.375)" fill="#7f869b"/><path d="M12.885,2.25H3.842A1.844,1.844,0,0,0,2,4.092V14.976a1.844,1.844,0,0,0,1.842,1.842h9.043a1.844,1.844,0,0,0,1.842-1.842V4.092A1.844,1.844,0,0,0,12.885,2.25ZM5.349,6.1H8.7a.67.67,0,1,1,0,1.34H5.349a.67.67,0,1,1,0-1.34Zm6.7,6.7h-6.7a.67.67,0,1,1,0-1.34h6.7a.67.67,0,0,1,0,1.34Zm0-2.679h-6.7a.67.67,0,0,1,0-1.34h6.7a.67.67,0,0,1,0,1.34Z" transform="translate(0 -0.743)" fill="#7f869b"/></g></g></svg>