<svg width="15" height="15" viewBox="0 0 15 15" fill="none" xmlns="http://www.w3.org/2000/svg">
<g clip-path="url(#clip0)">
<path d="M4.09317 9.29853C4.47753 9.62412 4.7324 10.0652 4.82448 10.5467H7.06071V7.41481C6.30339 7.21916 5.7423 6.53016 5.7423 5.71254H6.62124C6.62124 6.19718 7.01553 6.59148 7.50018 6.59148C7.98483 6.59148 8.37912 6.19718 8.37912 5.71254H9.25806C9.25806 6.53013 8.69698 7.21916 7.93965 7.41481V10.5467H10.1764C10.2695 10.0653 10.5268 9.62201 10.9148 9.29208C12.0962 8.28745 12.7738 6.82258 12.7738 5.27307C12.7738 0.545773 7.00853 -1.77583 3.72531 1.59713C1.58257 3.79853 1.76574 7.32695 4.09317 9.29853Z" fill="#21497D"/>
<path d="M7.50007 15.0001C8.46937 15.0001 9.25795 14.2115 9.25795 13.2422H5.74219C5.74219 14.2115 6.53077 15.0001 7.50007 15.0001Z" fill="#21497D"/>
<path d="M4.86328 11.4255H10.1369V12.3631H4.86328V11.4255Z" fill="#21497D"/>
</g>
<defs>
<clipPath id="clip0">
<rect width="15" height="15" fill="white"/>
</clipPath>
</defs>
</svg>
