<svg xmlns="http://www.w3.org/2000/svg" xmlns:xlink="http://www.w3.org/1999/xlink" width="20" height="20" viewBox="0 0 20 20"><defs><clipPath id="a"><rect width="20" height="20" transform="translate(-21873 -5187)" fill="none" stroke="#707070" stroke-width="1"/></clipPath></defs><g transform="translate(21873 5187)" clip-path="url(#a)"><path d="M12.25-.437v-9.625a1.313,1.313,0,0,0-1.312-1.312H1.313A1.313,1.313,0,0,0,0-10.062V-.437A1.313,1.313,0,0,0,1.313.875h9.625A1.313,1.313,0,0,0,12.25-.437ZM3.063-7a.437.437,0,0,1-.437-.437v-.875a.437.437,0,0,1,.438-.437h3.5A.437.437,0,0,1,7-8.312v.875A.437.437,0,0,1,6.563-7Zm0,2.625a.437.437,0,0,1-.437-.437v-.875a.437.437,0,0,1,.438-.437H9.188a.437.437,0,0,1,.438.438v.875a.437.437,0,0,1-.437.438Zm0,2.625a.437.437,0,0,1-.437-.437v-.875A.437.437,0,0,1,3.063-3.5h1.75a.437.437,0,0,1,.438.438v.875a.437.437,0,0,1-.437.438Z" transform="translate(-21869 -5172)" fill="#7f869b"/></g></svg>