<svg xmlns="http://www.w3.org/2000/svg" xmlns:xlink="http://www.w3.org/1999/xlink" width="20" height="20" viewBox="0 0 20 20"><defs><clipPath id="a"><rect width="20" height="20" rx="6" transform="translate(-21872 -5081)" fill="none" stroke="#707070" stroke-width="1"/></clipPath></defs><g transform="translate(21872 5081)" clip-path="url(#a)"><path d="M0,0A.875.875,0,0,0,.875.875h15.75A.875.875,0,0,0,17.5,0V-8.75H0ZM12.25-5.687a.437.437,0,0,1,.438-.437h2.625a.437.437,0,0,1,.438.438v.875a.437.437,0,0,1-.437.438H12.688a.437.437,0,0,1-.437-.437Zm0,3.281a.219.219,0,0,1,.219-.219h3.063a.219.219,0,0,1,.219.219v.438a.219.219,0,0,1-.219.219H12.469a.219.219,0,0,1-.219-.219ZM1.75-5.031a.219.219,0,0,1,.219-.219h8.313a.219.219,0,0,1,.219.219v.438a.219.219,0,0,1-.219.219H1.969a.219.219,0,0,1-.219-.219Zm0,2.625a.219.219,0,0,1,.219-.219H6.781A.219.219,0,0,1,7-2.406v.438a.219.219,0,0,1-.219.219H1.969a.219.219,0,0,1-.219-.219Zm15.313-8.969H.438A.437.437,0,0,0,0-10.937v1.313H17.5v-1.312A.437.437,0,0,0,17.063-11.375Z" transform="translate(-21871 -5066)" fill="#7f869b"/></g></svg>