<svg width="21" height="21" viewBox="0 0 21 21" fill="none" xmlns="http://www.w3.org/2000/svg">
<g clip-path="url(#clip0)">
<path d="M15.0938 4.8125C15.5768 4.8125 15.9688 4.4205 15.9688 3.9375L15.9688 0.875C15.9688 0.392 15.5768 3.42697e-08 15.0938 7.64949e-08C14.6108 1.1872e-07 14.2188 0.392 14.2188 0.875L14.2188 3.9375C14.2188 4.4205 14.6108 4.8125 15.0938 4.8125Z" fill="#DCDCDC"/>
<path d="M10.9375 4.8125C11.4205 4.8125 11.8125 4.4205 11.8125 3.9375L11.8125 0.875C11.8125 0.392 11.4205 3.42698e-08 10.9375 7.64952e-08C10.4545 1.18721e-07 10.0625 0.392 10.0625 0.875L10.0625 3.9375C10.0625 4.4205 10.4545 4.8125 10.9375 4.8125Z" fill="#DCDCDC"/>
<path d="M6.78125 4.8125C7.26425 4.8125 7.65625 4.4205 7.65625 3.9375L7.65625 0.875C7.65625 0.392 7.26425 3.42699e-08 6.78125 7.64952e-08C6.29824 1.18721e-07 5.90624 0.392 5.90624 0.875L5.90624 3.9375C5.90624 4.4205 6.29825 4.8125 6.78125 4.8125Z" fill="#DCDCDC"/>
<path d="M5.03125 1.96875L16.8437 1.96875C18.1711 1.96875 19.25 3.04762 19.25 4.375L19.25 18.5937C19.25 19.9211 18.1711 21 16.8438 21L5.03125 21C3.70387 21 2.625 19.9211 2.625 18.5937L2.625 4.375C2.625 3.04763 3.70387 1.96875 5.03125 1.96875ZM14.875 7L10.5 7C10.017 7 9.625 7.392 9.625 7.875C9.625 8.358 10.017 8.75 10.5 8.75L14.875 8.75C15.358 8.75 15.75 8.358 15.75 7.875C15.75 7.392 15.358 7 14.875 7ZM6.125 15.75L14.875 15.75C15.358 15.75 15.75 15.358 15.75 14.875C15.75 14.392 15.358 14 14.875 14L6.125 14C5.642 14 5.25 14.392 5.25 14.875C5.25 15.358 5.642 15.75 6.125 15.75ZM6.125 12.25L14.875 12.25C15.358 12.25 15.75 11.858 15.75 11.375C15.75 10.892 15.358 10.5 14.875 10.5L6.125 10.5C5.642 10.5 5.25 10.892 5.25 11.375C5.25 11.858 5.642 12.25 6.125 12.25Z" fill="#DCDCDC"/>
</g>
<defs>
<clipPath id="clip0">
<rect width="21" height="21" fill="white" transform="matrix(-1 8.74228e-08 8.74228e-08 1 21 0)"/>
</clipPath>
</defs>
</svg>
