<svg width="10" height="14" viewBox="0 0 10 14" fill="none" xmlns="http://www.w3.org/2000/svg">
<path d="M4.88103 0.430664C2.36546 0.430664 0.318848 2.47728 0.318848 4.99285C0.318848 8.15466 4.88552 13.5557 4.88552 13.5557C4.88552 13.5557 9.44322 7.99917 9.44322 4.99285C9.44322 2.47728 7.39669 0.430664 4.88103 0.430664ZM6.25754 6.32866C5.87799 6.70814 5.37955 6.89791 4.88103 6.89791C4.3826 6.89791 3.884 6.70814 3.50461 6.32866C2.74558 5.56971 2.74558 4.33476 3.50461 3.57573C3.87215 3.20803 4.36105 3.00552 4.88103 3.00552C5.40102 3.00552 5.88984 3.20811 6.25754 3.57573C7.01657 4.33476 7.01657 5.56971 6.25754 6.32866Z" fill="#21497D"/>
</svg>
