<svg xmlns="http://www.w3.org/2000/svg" xmlns:xlink="http://www.w3.org/1999/xlink" width="20" height="20" viewBox="0 0 20 20"><defs><clipPath id="a"><rect width="20" height="20" transform="translate(-21873 -5031)" fill="none" stroke="#707070" stroke-width="1"/></clipPath></defs><g transform="translate(21873 5031)" clip-path="url(#a)"><path d="M13.233,5.48l-1.1-.139a5.513,5.513,0,0,0-.332-.8l.677-.872a.867.867,0,0,0-.071-1.155l-.919-.919a.87.87,0,0,0-1.158-.074L9.463,2.2a5.493,5.493,0,0,0-.8-.332L8.521.77A.874.874,0,0,0,7.654,0H6.347A.874.874,0,0,0,5.48.768l-.139,1.1a5.43,5.43,0,0,0-.8.332L3.667,1.52a.868.868,0,0,0-1.155.071l-.919.918A.87.87,0,0,0,1.52,3.668l.677.872a5.449,5.449,0,0,0-.332.8L.77,5.48A.874.874,0,0,0,0,6.347V7.654a.874.874,0,0,0,.768.867l1.1.139a5.513,5.513,0,0,0,.332.8l-.677.872a.867.867,0,0,0,.071,1.155l.919.919a.87.87,0,0,0,1.158.074l.872-.677a5.386,5.386,0,0,0,.8.332L5.48,13.23A.874.874,0,0,0,6.347,14H7.654a.874.874,0,0,0,.867-.768l.139-1.1a5.513,5.513,0,0,0,.8-.332l.872.677a.867.867,0,0,0,1.155-.071l.919-.919a.869.869,0,0,0,.074-1.158L11.8,9.462a5.386,5.386,0,0,0,.332-.8l1.094-.139A.874.874,0,0,0,14,7.654V6.347a.873.873,0,0,0-.768-.867ZM7,9.918A2.917,2.917,0,1,1,9.918,7,2.92,2.92,0,0,1,7,9.918Z" transform="translate(-21870 -5028)" fill="#7f869b"/></g></svg>