<svg xmlns="http://www.w3.org/2000/svg" xmlns:xlink="http://www.w3.org/1999/xlink" width="20" height="20" viewBox="0 0 20 20"><defs><clipPath id="a"><rect width="20" height="20" transform="translate(-21873 -5240)" fill="none" stroke="#707070" stroke-width="1"/></clipPath></defs><g transform="translate(21873 5240)" clip-path="url(#a)"><path d="M3.817-11.279a.377.377,0,0,0-.232-.1.377.377,0,0,0-.232.1L1.611-9.548l-.621-.6a.377.377,0,0,0-.232-.1.377.377,0,0,0-.232.1L.1-9.723a.377.377,0,0,0-.1.232.377.377,0,0,0,.1.232l1.3,1.3a.4.4,0,0,0,.241.1.4.4,0,0,0,.241-.1l.426-.427L4.28-10.363a.38.38,0,0,0,.1-.234.38.38,0,0,0-.094-.231Zm0,4.353a.377.377,0,0,0-.232-.1.377.377,0,0,0-.232.1L1.611-5.184l-.621-.6a.377.377,0,0,0-.232-.1.377.377,0,0,0-.232.1L.1-5.359a.377.377,0,0,0-.1.232.377.377,0,0,0,.1.232l1.3,1.3a.4.4,0,0,0,.241.1.4.4,0,0,0,.241-.1l.429-.429L4.279-6a.377.377,0,0,0,.1-.232.377.377,0,0,0-.094-.23ZM1.75-2.187A1.327,1.327,0,0,0,.421-.875,1.327,1.327,0,0,0,1.75.438,1.313,1.313,0,0,0,3.063-.875,1.313,1.313,0,0,0,1.75-2.187Zm11.813.438H5.688a.438.438,0,0,0-.437.438v.875A.438.438,0,0,0,5.688,0h7.875A.438.438,0,0,0,14-.437v-.875A.438.438,0,0,0,13.563-1.75Zm0-8.75H5.688a.438.438,0,0,0-.437.438v.875a.438.438,0,0,0,.438.438h7.875A.438.438,0,0,0,14-9.187v-.875A.438.438,0,0,0,13.563-10.5Zm0,4.375H5.688a.438.438,0,0,0-.437.438v.875a.438.438,0,0,0,.438.438h7.875A.438.438,0,0,0,14-4.812v-.875A.438.438,0,0,0,13.563-6.125Z" transform="translate(-21870 -5225)" fill="#7f869b"/></g></svg>