<svg width="19" height="19" viewBox="0 0 19 19" fill="none" xmlns="http://www.w3.org/2000/svg">
<path d="M9.60977 0.219971C7.75259 0.219971 5.93713 0.770687 4.39294 1.80248C2.84876 2.83427 1.64521 4.30079 0.934505 6.01659C0.223795 7.7324 0.0378411 9.62042 0.400158 11.4419C0.762474 13.2634 1.65679 14.9365 2.97001 16.2498C4.28323 17.563 5.95637 18.4573 7.77786 18.8196C9.59935 19.1819 11.4874 18.996 13.2032 18.2853C14.919 17.5746 16.3855 16.371 17.4173 14.8268C18.4491 13.2826 18.9998 11.4672 18.9998 9.61001C18.997 7.12047 18.0068 4.73371 16.2464 2.97335C14.4861 1.21298 12.0993 0.222775 9.60977 0.219971V0.219971ZM9.60977 17.8991C7.97033 17.8991 6.36771 17.413 5.00457 16.5022C3.64143 15.5913 2.579 14.2968 1.95161 12.7821C1.32423 11.2675 1.16007 9.60081 1.47991 7.99288C1.79975 6.38494 2.58921 4.90796 3.74847 3.74871C4.90772 2.58945 6.3847 1.79999 7.99264 1.48015C9.60057 1.16031 11.2672 1.32447 12.7819 1.95185C14.2965 2.57924 15.5911 3.64167 16.5019 5.00481C17.4127 6.36795 17.8989 7.97057 17.8989 9.61001C17.8964 11.8076 17.0222 13.9145 15.4683 15.4685C13.9143 17.0225 11.8074 17.8966 9.60977 17.8991Z" fill="#BBC5D5"/>
<path d="M9.60854 10.4492C10.3955 10.4494 11.1649 10.2162 11.8193 9.77916C12.4737 9.34209 12.9839 8.72077 13.2852 7.99377C13.5865 7.26677 13.6654 6.46675 13.512 5.69488C13.3586 4.92301 12.9798 4.21396 12.4234 3.65742C11.867 3.10088 11.158 2.72184 10.3862 2.56823C9.61437 2.41462 8.81432 2.49335 8.08724 2.79446C7.36016 3.09557 6.73871 3.60554 6.30147 4.25986C5.86424 4.91418 5.63086 5.68348 5.63086 6.47044C5.63198 7.52514 6.05139 8.53633 6.79707 9.28222C7.54276 10.0281 8.55384 10.4478 9.60854 10.4492ZM9.60854 3.6297C10.1706 3.6297 10.72 3.79636 11.1874 4.10862C11.6547 4.42089 12.0189 4.86471 12.234 5.38399C12.4491 5.90326 12.5054 6.47465 12.3957 7.0259C12.2861 7.57716 12.0154 8.08352 11.618 8.48096C11.2206 8.87839 10.7142 9.14905 10.163 9.2587C9.6117 9.36835 9.0403 9.31207 8.52103 9.09698C8.00176 8.88189 7.55793 8.51766 7.24567 8.05032C6.93341 7.58299 6.76674 7.03356 6.76674 6.4715C6.76758 5.71807 7.06725 4.99573 7.60001 4.46297C8.13276 3.93021 8.8551 3.63054 9.60854 3.6297Z" fill="#BBC5D5"/>
<path d="M15.7025 12.3098C15.3551 11.892 14.9205 11.5554 14.4292 11.3234C13.9379 11.0915 13.4018 10.97 12.8585 10.9673H6.35799C5.81507 10.9703 5.27936 11.092 4.78845 11.3239C4.29753 11.5558 3.8633 11.8923 3.51619 12.3098L3.25977 12.6139L3.45155 12.9667C4.03346 14.0987 4.9161 15.0484 6.00252 15.7114C7.08893 16.3745 8.33708 16.7253 9.60986 16.7253C10.8826 16.7253 12.1308 16.3745 13.2172 15.7114C14.3036 15.0484 15.1862 14.0987 15.7682 12.9667L15.9599 12.6139L15.7025 12.3098ZM9.60986 15.5945C8.60678 15.5849 7.62242 15.3217 6.74837 14.8295C5.87432 14.3373 5.13897 13.6319 4.61074 12.7792C5.09185 12.3493 5.71386 12.1106 6.35905 12.1085H12.8585C13.5037 12.1106 14.1257 12.3493 14.6069 12.7792C14.0782 13.6307 13.3429 14.3347 12.4693 14.826C11.5957 15.3173 10.6121 15.5798 9.60986 15.5892V15.5945Z" fill="#BBC5D5"/>
</svg>
