<svg width="13" height="13" viewBox="0 0 13 13" fill="none" xmlns="http://www.w3.org/2000/svg">
<g clip-path="url(#clip0)">
<path d="M6.5 0.000976562C2.91052 0.000976562 0 2.91093 0 6.50069C0 10.0905 2.91024 13.0004 6.5 13.0004C10.09 13.0004 13 10.0905 13 6.50069C13 2.91093 10.09 0.000976562 6.5 0.000976562ZM6.5 1.94447C7.68774 1.94447 8.6502 2.90722 8.6502 4.09438C8.6502 5.28183 7.68774 6.2443 6.5 6.2443C5.31284 6.2443 4.35037 5.28183 4.35037 4.09438C4.35037 2.90722 5.31284 1.94447 6.5 1.94447ZM6.49857 11.301C5.31398 11.301 4.22903 10.8696 3.39219 10.1556C3.18833 9.98167 3.0707 9.72671 3.0707 9.45918C3.0707 8.25517 4.04516 7.29156 5.24945 7.29156H7.75112C8.9557 7.29156 9.92645 8.25517 9.92645 9.45918C9.92645 9.72699 9.80939 9.98139 9.60524 10.1553C8.76869 10.8696 7.68345 11.301 6.49857 11.301Z" fill="#21497D"/>
</g>
<defs>
<clipPath id="clip0">
<rect width="13" height="13" fill="white"/>
</clipPath>
</defs>
</svg>
