<svg width="13" height="18" viewBox="0 0 13 18" fill="none" xmlns="http://www.w3.org/2000/svg">
<path d="M6.60452 0.343506C10.1311 0.343506 13 3.21244 13 6.73898C13 7.89995 12.4793 9.14857 12.4575 9.20124C12.2893 9.60039 11.9575 10.2204 11.7183 10.5838L7.33323 17.2279C7.15378 17.5003 6.88818 17.6564 6.60452 17.6564C6.32087 17.6564 6.05527 17.5003 5.87582 17.2283L1.4904 10.5838C1.25076 10.2204 0.919324 9.60039 0.751161 9.20124C0.729341 9.14895 0.209049 7.90032 0.209049 6.73898C0.209049 3.21244 3.07798 0.343506 6.60452 0.343506ZM1.44488 8.9093C1.59499 9.26707 1.90385 9.8438 2.11866 10.1696L6.50408 16.8141C6.59061 16.9454 6.61807 16.9454 6.7046 16.8141L11.09 10.1696C11.3048 9.8438 11.6137 9.2667 11.7638 8.90893C11.7702 8.8935 12.2476 7.7442 12.2476 6.73898C12.2476 3.62739 9.71611 1.09591 6.60452 1.09591C3.49294 1.09591 0.961459 3.62739 0.961459 6.73898C0.961459 7.7457 1.43999 8.89802 1.44488 8.9093Z" fill="#BBC5D5"/>
<path d="M6.60439 3.35352C8.4715 3.35352 9.99023 4.87263 9.99023 6.73936C9.99023 8.60608 8.4715 10.1252 6.60439 10.1252C4.73729 10.1252 3.21855 8.60608 3.21855 6.73936C3.21855 4.87263 4.73729 3.35352 6.60439 3.35352ZM6.60439 9.37279C8.05617 9.37279 9.23783 8.19151 9.23783 6.73936C9.23783 5.28721 8.05617 4.10592 6.60439 4.10592C5.15262 4.10592 3.97096 5.28721 3.97096 6.73936C3.97096 8.19151 5.15262 9.37279 6.60439 9.37279Z" fill="#BBC5D5"/>
</svg>
