<svg width="19" height="19" viewBox="0 0 19 19" fill="none" xmlns="http://www.w3.org/2000/svg">
<path d="M16.9643 19H2.03571C0.911419 19 0 18.0886 0 16.9643V2.03571C0 0.91142 0.911419 3.04845e-07 2.03571 3.04845e-07H16.9643C18.0886 3.04845e-07 19 0.91142 19 2.03571V16.9643C19 18.0886 18.0886 19 16.9643 19ZM6.10714 4.07143H4.07143C3.69665 4.07143 3.39284 4.37523 3.39284 4.75001C3.39284 5.12479 3.69665 5.42859 4.07143 5.42859H6.10714C6.48192 5.42859 6.78572 5.12479 6.78572 4.75001C6.78572 4.37523 6.48192 4.07143 6.10714 4.07143ZM6.10714 8.82144H4.07143C3.69665 8.82144 3.39284 9.12524 3.39284 9.50002C3.39284 9.8748 3.69665 10.1786 4.07143 10.1786H6.10714C6.48192 10.1786 6.78572 9.8748 6.78572 9.50002C6.78572 9.12524 6.48192 8.82144 6.10714 8.82144ZM6.10714 13.5714H4.07143C3.69665 13.5714 3.39284 13.8753 3.39284 14.25C3.39284 14.6248 3.69665 14.9286 4.07143 14.9286H6.10714C6.48192 14.9286 6.78572 14.6248 6.78572 14.25C6.78572 13.8752 6.48192 13.5714 6.10714 13.5714ZM14.9286 4.07143H8.82144C8.44666 4.07143 8.14285 4.37523 8.14285 4.75001C8.14285 5.12479 8.44666 5.42859 8.82144 5.42859H14.9286C15.3034 5.42859 15.6072 5.12479 15.6072 4.75001C15.6072 4.37523 15.3033 4.07143 14.9286 4.07143ZM14.9286 8.82144H8.82144C8.44666 8.82144 8.14285 9.12524 8.14285 9.50002C8.14285 9.8748 8.44666 10.1786 8.82144 10.1786H14.9286C15.3034 10.1786 15.6072 9.8748 15.6072 9.50002C15.6072 9.12524 15.3033 8.82144 14.9286 8.82144ZM14.9286 13.5714H8.82144C8.44666 13.5714 8.14285 13.8753 8.14285 14.25C8.14285 14.6248 8.44666 14.9286 8.82144 14.9286H14.9286C15.3034 14.9286 15.6072 14.6248 15.6072 14.25C15.6072 13.8753 15.3033 13.5714 14.9286 13.5714Z" fill="#DCDCDC"/>
</svg>
