<svg width="19" height="19" viewBox="0 0 19 19" fill="none" xmlns="http://www.w3.org/2000/svg">
<path d="M9.5 0.000976562C4.25384 0.000976562 0 4.25399 0 9.50056C0 14.7471 4.25343 19.0001 9.5 19.0001C14.747 19.0001 19 14.7471 19 9.50056C19 4.25399 14.747 0.000976562 9.5 0.000976562ZM9.5 2.84146C11.2359 2.84146 12.6426 4.24856 12.6426 5.98365C12.6426 7.71915 11.2359 9.12583 9.5 9.12583C7.76491 9.12583 6.35823 7.71915 6.35823 5.98365C6.35823 4.24856 7.76491 2.84146 9.5 2.84146ZM9.49791 16.5164C7.76658 16.5164 6.18088 15.8859 4.95781 14.8423C4.65987 14.5881 4.48794 14.2155 4.48794 13.8245C4.48794 12.0648 5.91215 10.6564 7.67227 10.6564H11.3286C13.0891 10.6564 14.5079 12.0648 14.5079 13.8245C14.5079 14.2159 14.3368 14.5877 14.0384 14.8419C12.8158 15.8859 11.2297 16.5164 9.49791 16.5164Z" fill="#DCDCDC"/>
</svg>
