<svg width="18" height="20" viewBox="0 0 18 20" fill="none" xmlns="http://www.w3.org/2000/svg">
<path d="M3.03149 0.968751L14.844 0.96875C16.1714 0.96875 17.2502 2.04762 17.2502 3.375L17.2502 17.5937C17.2502 18.9211 16.1714 20 14.844 20L3.03149 20C1.70412 20 0.625242 18.9211 0.625242 17.5937L0.625241 3.375C0.62524 2.04763 1.70412 0.968751 3.03149 0.968751ZM12.8752 6L8.50024 6C8.01724 6 7.62524 6.392 7.62524 6.875C7.62524 7.358 8.01724 7.75 8.50024 7.75L12.8752 7.75C13.3582 7.75 13.7502 7.358 13.7502 6.875C13.7502 6.392 13.3582 6 12.8752 6ZM4.12524 14.75L12.8752 14.75C13.3582 14.75 13.7502 14.358 13.7502 13.875C13.7502 13.392 13.3582 13 12.8752 13L4.12524 13C3.64224 13 3.25024 13.392 3.25024 13.875C3.25024 14.358 3.64224 14.75 4.12524 14.75ZM4.12524 11.25L12.8752 11.25C13.3582 11.25 13.7502 10.858 13.7502 10.375C13.7502 9.892 13.3582 9.5 12.8752 9.5L4.12524 9.5C3.64224 9.5 3.25024 9.892 3.25024 10.375C3.25024 10.858 3.64224 11.25 4.12524 11.25Z" fill="#DCDCDC"/>
</svg>
