<svg width="21" height="21" viewBox="0 0 21 21" fill="none" xmlns="http://www.w3.org/2000/svg">
<path d="M10.5 0C6.09 0 2.50195 3.58805 2.50195 7.99805C2.50195 9.74326 3.0532 11.4015 4.09746 12.7928L10.007 20.7519C10.0218 20.7712 10.0443 20.7786 10.0607 20.7958C10.356 21.112 10.7822 21.0324 10.9926 20.7519C12.6943 18.4813 15.8136 14.2406 17.0129 12.641C17.0129 12.641 17.0133 12.6398 17.0137 12.639L17.0211 12.6291C17.9874 11.2715 18.498 9.67025 18.498 7.99805C18.498 3.58805 14.91 0 10.5 0ZM10.5 12.3129C8.12561 12.3129 6.18516 10.3724 6.18516 7.99805C6.18516 5.62365 8.12561 3.6832 10.5 3.6832C12.8744 3.6832 14.8148 5.62365 14.8148 7.99805C14.8148 10.3724 12.8744 12.3129 10.5 12.3129Z" fill="#375FBE"/>
</svg>
