<svg xmlns="http://www.w3.org/2000/svg" width="65" height="60" viewBox="0 0 65 60">
  <g id="Group_8479" data-name="Group 8479" transform="translate(-4114 -6530)">
    <rect id="Rectangle_6755" data-name="Rectangle 6755" width="65" height="60" rx="7" transform="translate(4114 6530)" fill="#fbb03b" opacity="0.1"/>
    <g id="call_1_" data-name="call (1)" transform="translate(4130 6544)">
      <g id="Group_8421" data-name="Group 8421">
        <path id="Path_13255" data-name="Path 13255" d="M30.113,21.49a18.589,18.589,0,0,1-5.838-.93,2.668,2.668,0,0,0-2.6.547L18,23.887a20.344,20.344,0,0,1-9.147-9.145l2.7-3.585A2.646,2.646,0,0,0,12.2,8.475a18.617,18.617,0,0,1-.933-5.848A2.63,2.63,0,0,0,8.64,0H2.627A2.63,2.63,0,0,0,0,2.627,30.147,30.147,0,0,0,30.113,32.74a2.63,2.63,0,0,0,2.627-2.627v-6A2.63,2.63,0,0,0,30.113,21.49Z" fill="#fbb03b"/>
      </g>
    </g>
  </g>
</svg>
